solid OpenSCAD_Model
  facet normal -1 0 0
    outer loop
      vertex -75 -5 0
      vertex -75 5 10
      vertex -75 5 0
    endloop
  endfacet
  facet normal -1 -0 0
    outer loop
      vertex -75 5 10
      vertex -75 -5 0
      vertex -75 -5 10
    endloop
  endfacet
  facet normal -0 0 1
    outer loop
      vertex -75 5 10
      vertex -5 -5 10
      vertex -5 5 10
    endloop
  endfacet
  facet normal 0 0 1
    outer loop
      vertex -5 -5 10
      vertex -75 5 10
      vertex -75 -5 10
    endloop
  endfacet
  facet normal 0 0 1
    outer loop
      vertex -5 -5 10
      vertex 5 -5 10
      vertex 5 5 10
    endloop
  endfacet
  facet normal -0 0 1
    outer loop
      vertex -5 75 10
      vertex 5 5 10
      vertex 5 75 10
    endloop
  endfacet
  facet normal 0 0 1
    outer loop
      vertex -5 5 10
      vertex 5 5 10
      vertex -5 75 10
    endloop
  endfacet
  facet normal 0 0 1
    outer loop
      vertex -5 -5 10
      vertex 5 5 10
      vertex -5 5 10
    endloop
  endfacet
  facet normal 0 0 1
    outer loop
      vertex 5 -5 10
      vertex -5 -5 10
      vertex 5 -75 10
    endloop
  endfacet
  facet normal 0 0 1
    outer loop
      vertex 5 -75 10
      vertex -5 -5 10
      vertex -5 -75 10
    endloop
  endfacet
  facet normal -0 0 1
    outer loop
      vertex 5 5 10
      vertex 75 -5 10
      vertex 75 5 10
    endloop
  endfacet
  facet normal 0 0 1
    outer loop
      vertex 75 -5 10
      vertex 5 5 10
      vertex 5 -5 10
    endloop
  endfacet
  facet normal 1 -0 0
    outer loop
      vertex 75 -5 10
      vertex 75 5 0
      vertex 75 5 10
    endloop
  endfacet
  facet normal 1 0 0
    outer loop
      vertex 75 5 0
      vertex 75 -5 10
      vertex 75 -5 0
    endloop
  endfacet
  facet normal 0 1 -0
    outer loop
      vertex 75 5 0
      vertex 5 5 10
      vertex 75 5 10
    endloop
  endfacet
  facet normal 0 1 0
    outer loop
      vertex 5 5 10
      vertex 75 5 0
      vertex 5 5 0
    endloop
  endfacet
  facet normal 0 1 -0
    outer loop
      vertex -5 5 0
      vertex -75 5 10
      vertex -5 5 10
    endloop
  endfacet
  facet normal 0 1 0
    outer loop
      vertex -75 5 10
      vertex -5 5 0
      vertex -75 5 0
    endloop
  endfacet
  facet normal 0 0 -1
    outer loop
      vertex 5 -5 0
      vertex 75 5 0
      vertex 75 -5 0
    endloop
  endfacet
  facet normal 0 0 -1
    outer loop
      vertex 5 -5 0
      vertex 5 5 0
      vertex 75 5 0
    endloop
  endfacet
  facet normal 0 0 -1
    outer loop
      vertex -5 -5 0
      vertex 5 -5 0
      vertex 5 -75 0
    endloop
  endfacet
  facet normal 0 0 -1
    outer loop
      vertex 5 5 0
      vertex -5 75 0
      vertex 5 75 0
    endloop
  endfacet
  facet normal 0 0 -1
    outer loop
      vertex 5 -5 0
      vertex -5 -5 0
      vertex 5 5 0
    endloop
  endfacet
  facet normal -0 0 -1
    outer loop
      vertex 5 5 0
      vertex -5 -5 0
      vertex -5 5 0
    endloop
  endfacet
  facet normal 0 -0 -1
    outer loop
      vertex -5 -5 0
      vertex 5 -75 0
      vertex -5 -75 0
    endloop
  endfacet
  facet normal 0 0 -1
    outer loop
      vertex 5 5 0
      vertex -5 5 0
      vertex -5 75 0
    endloop
  endfacet
  facet normal 0 0 -1
    outer loop
      vertex -75 -5 0
      vertex -5 5 0
      vertex -5 -5 0
    endloop
  endfacet
  facet normal -0 0 -1
    outer loop
      vertex -5 5 0
      vertex -75 -5 0
      vertex -75 5 0
    endloop
  endfacet
  facet normal 0 -1 0
    outer loop
      vertex -75 -5 0
      vertex -5 -5 10
      vertex -75 -5 10
    endloop
  endfacet
  facet normal 0 -1 -0
    outer loop
      vertex -5 -5 10
      vertex -75 -5 0
      vertex -5 -5 0
    endloop
  endfacet
  facet normal 0 -1 0
    outer loop
      vertex 5 -5 0
      vertex 75 -5 10
      vertex 5 -5 10
    endloop
  endfacet
  facet normal 0 -1 -0
    outer loop
      vertex 75 -5 10
      vertex 5 -5 0
      vertex 75 -5 0
    endloop
  endfacet
  facet normal 0 1 -0
    outer loop
      vertex 5 75 0
      vertex -5 75 10
      vertex 5 75 10
    endloop
  endfacet
  facet normal 0 1 0
    outer loop
      vertex -5 75 10
      vertex 5 75 0
      vertex -5 75 0
    endloop
  endfacet
  facet normal -1 6.81196e-09 0
    outer loop
      vertex -5 5 0
      vertex -5 75 10
      vertex -5 75 0
    endloop
  endfacet
  facet normal -1 6.81196e-09 0
    outer loop
      vertex -5 75 10
      vertex -5 5 0
      vertex -5 5 10
    endloop
  endfacet
  facet normal -1 6.81196e-09 0
    outer loop
      vertex -5 -75 0
      vertex -5 -5 10
      vertex -5 -5 0
    endloop
  endfacet
  facet normal -1 6.81196e-09 0
    outer loop
      vertex -5 -5 10
      vertex -5 -75 0
      vertex -5 -75 10
    endloop
  endfacet
  facet normal 0 -1 0
    outer loop
      vertex -5 -75 0
      vertex 5 -75 10
      vertex -5 -75 10
    endloop
  endfacet
  facet normal 0 -1 -0
    outer loop
      vertex 5 -75 10
      vertex -5 -75 0
      vertex 5 -75 0
    endloop
  endfacet
  facet normal 1 -6.81196e-09 0
    outer loop
      vertex 5 -75 10
      vertex 5 -5 0
      vertex 5 -5 10
    endloop
  endfacet
  facet normal 1 -6.81196e-09 0
    outer loop
      vertex 5 -5 0
      vertex 5 -75 10
      vertex 5 -75 0
    endloop
  endfacet
  facet normal 1 -6.81196e-09 0
    outer loop
      vertex 5 5 10
      vertex 5 75 0
      vertex 5 75 10
    endloop
  endfacet
  facet normal 1 -6.81196e-09 0
    outer loop
      vertex 5 75 0
      vertex 5 5 10
      vertex 5 5 0
    endloop
  endfacet
endsolid OpenSCAD_Model
